<svg xmlns="http://www.w3.org/2000/svg" xmlns:xlink="http://www.w3.org/1999/xlink" width="500" zoomAndPan="magnify" viewBox="0 0 375 374.999991" height="500" preserveAspectRatio="xMidYMid meet" version="1.0"><defs><g/></defs><g fill="#ffffff" fill-opacity="1"><g transform="translate(130.948639, 164.143937)"><g><path d="M 2.875 -60.328125 L 58.078125 -60.328125 L 58.078125 -38.515625 L 46.609375 -38.515625 L 46.609375 -48.859375 L 37.078125 -48.859375 L 37.078125 -11.46875 L 45.375 -11.46875 L 45.375 0 L 15.359375 0 L 15.359375 -11.46875 L 23.765625 -11.46875 L 23.765625 -48.859375 L 14.34375 -48.859375 L 14.34375 -38.515625 L 2.875 -38.515625 Z M 2.875 -60.328125 "/></g></g></g><g fill="#ffffff" fill-opacity="1"><g transform="translate(182.074525, 194.327268)"><g><path d="M 2.875 -60.328125 L 58.078125 -60.328125 L 58.078125 -38.515625 L 46.609375 -38.515625 L 46.609375 -48.859375 L 37.078125 -48.859375 L 37.078125 -11.46875 L 45.375 -11.46875 L 45.375 0 L 15.359375 0 L 15.359375 -11.46875 L 23.765625 -11.46875 L 23.765625 -48.859375 L 14.34375 -48.859375 L 14.34375 -38.515625 L 2.875 -38.515625 Z M 2.875 -60.328125 "/></g></g></g><g fill="#ffffff" fill-opacity="1"><g transform="translate(117.231222, 233.899137)"><g><path d="M 0.21875 -20.5625 L 10.46875 -20.5625 L 10.46875 -18.8125 L 6.65625 -18.8125 C 6.570312 -17.34375 6.519531 -15.875 6.5 -14.40625 C 6.488281 -12.9375 6.484375 -11.566406 6.484375 -10.296875 C 6.484375 -9.523438 6.488281 -8.710938 6.5 -7.859375 C 6.507812 -7.015625 6.519531 -6.148438 6.53125 -5.265625 C 6.550781 -4.390625 6.578125 -3.503906 6.609375 -2.609375 C 6.640625 -1.710938 6.679688 -0.84375 6.734375 0 L 3.9375 0 C 4 -0.84375 4.046875 -1.710938 4.078125 -2.609375 C 4.109375 -3.503906 4.132812 -4.390625 4.15625 -5.265625 C 4.175781 -6.148438 4.191406 -7.015625 4.203125 -7.859375 C 4.210938 -8.710938 4.21875 -9.523438 4.21875 -10.296875 C 4.21875 -11.566406 4.203125 -12.9375 4.171875 -14.40625 C 4.148438 -15.875 4.109375 -17.34375 4.046875 -18.8125 L 0.21875 -18.8125 Z M 0.21875 -20.5625 "/></g></g></g><g fill="#ffffff" fill-opacity="1"><g transform="translate(127.925442, 233.899137)"><g><path d="M 9.09375 0 L 9.171875 -1.8125 C 8.929688 -1.539062 8.6875 -1.269531 8.4375 -1 C 8.1875 -0.738281 7.90625 -0.503906 7.59375 -0.296875 C 7.289062 -0.0976562 6.941406 0.0625 6.546875 0.1875 C 6.148438 0.3125 5.679688 0.375 5.140625 0.375 C 4.523438 0.375 3.953125 0.25 3.421875 0 C 2.890625 -0.257812 2.425781 -0.632812 2.03125 -1.125 C 1.632812 -1.613281 1.320312 -2.21875 1.09375 -2.9375 C 0.863281 -3.664062 0.75 -4.503906 0.75 -5.453125 C 0.75 -6.648438 0.929688 -7.675781 1.296875 -8.53125 C 1.671875 -9.394531 2.21875 -10.125 2.9375 -10.71875 C 3.664062 -11.320312 4.5625 -11.804688 5.625 -12.171875 C 6.695312 -12.546875 7.9375 -12.847656 9.34375 -13.078125 C 9.34375 -14.285156 9.28125 -15.28125 9.15625 -16.0625 C 9.039062 -16.851562 8.863281 -17.476562 8.625 -17.9375 C 8.382812 -18.40625 8.085938 -18.726562 7.734375 -18.90625 C 7.378906 -19.09375 6.972656 -19.1875 6.515625 -19.1875 C 6.109375 -19.1875 5.707031 -19.125 5.3125 -19 C 4.914062 -18.875 4.519531 -18.703125 4.125 -18.484375 C 3.726562 -18.273438 3.332031 -18.035156 2.9375 -17.765625 C 2.539062 -17.492188 2.15625 -17.207031 1.78125 -16.90625 L 1.78125 -19.8125 C 2.195312 -19.96875 2.59375 -20.113281 2.96875 -20.25 C 3.351562 -20.382812 3.738281 -20.5 4.125 -20.59375 C 4.507812 -20.695312 4.894531 -20.78125 5.28125 -20.84375 C 5.664062 -20.90625 6.078125 -20.9375 6.515625 -20.9375 C 7.398438 -20.9375 8.164062 -20.816406 8.8125 -20.578125 C 9.46875 -20.335938 10.007812 -19.957031 10.4375 -19.4375 C 10.875 -18.914062 11.203125 -18.242188 11.421875 -17.421875 C 11.640625 -16.609375 11.75 -15.628906 11.75 -14.484375 C 11.75 -14.367188 11.742188 -14.179688 11.734375 -13.921875 C 11.734375 -13.671875 11.726562 -13.367188 11.71875 -13.015625 C 11.71875 -12.671875 11.710938 -12.296875 11.703125 -11.890625 C 11.703125 -11.492188 11.695312 -11.097656 11.6875 -10.703125 C 11.6875 -10.316406 11.679688 -9.953125 11.671875 -9.609375 C 11.671875 -9.265625 11.671875 -8.976562 11.671875 -8.75 C 11.671875 -8.21875 11.675781 -7.617188 11.6875 -6.953125 C 11.695312 -6.296875 11.710938 -5.59375 11.734375 -4.84375 C 11.765625 -4.09375 11.796875 -3.304688 11.828125 -2.484375 C 11.859375 -1.671875 11.898438 -0.84375 11.953125 0 Z M 9.28125 -4.078125 C 9.3125 -5.097656 9.332031 -6.1875 9.34375 -7.34375 C 9.363281 -8.507812 9.375 -9.84375 9.375 -11.34375 C 8.113281 -11.1875 7.09375 -10.9375 6.3125 -10.59375 C 5.53125 -10.257812 4.925781 -9.847656 4.5 -9.359375 C 4.070312 -8.867188 3.78125 -8.304688 3.625 -7.671875 C 3.476562 -7.046875 3.40625 -6.363281 3.40625 -5.625 C 3.40625 -5 3.460938 -4.429688 3.578125 -3.921875 C 3.691406 -3.410156 3.859375 -2.976562 4.078125 -2.625 C 4.296875 -2.269531 4.554688 -2 4.859375 -1.8125 C 5.160156 -1.625 5.5 -1.53125 5.875 -1.53125 C 6.300781 -1.53125 6.675781 -1.601562 7 -1.75 C 7.332031 -1.90625 7.628906 -2.101562 7.890625 -2.34375 C 8.148438 -2.59375 8.390625 -2.867188 8.609375 -3.171875 C 8.835938 -3.484375 9.0625 -3.785156 9.28125 -4.078125 Z M 9.28125 -4.078125 "/></g></g></g><g fill="#ffffff" fill-opacity="1"><g transform="translate(141.22217, 233.899137)"><g><path d="M 10.25 -9.84375 C 10.226562 -11.394531 10.191406 -12.753906 10.140625 -13.921875 C 10.097656 -15.085938 10.003906 -16.050781 9.859375 -16.8125 C 9.722656 -17.570312 9.515625 -18.140625 9.234375 -18.515625 C 8.953125 -18.898438 8.566406 -19.09375 8.078125 -19.09375 C 7.816406 -19.09375 7.503906 -19.003906 7.140625 -18.828125 C 6.773438 -18.660156 6.398438 -18.4375 6.015625 -18.15625 C 5.640625 -17.875 5.273438 -17.550781 4.921875 -17.1875 C 4.578125 -16.832031 4.289062 -16.46875 4.0625 -16.09375 C 4.007812 -14.125 3.984375 -12.125 3.984375 -10.09375 C 3.984375 -9.164062 3.988281 -8.28125 4 -7.4375 C 4.007812 -6.601562 4.019531 -5.78125 4.03125 -4.96875 C 4.050781 -4.164062 4.082031 -3.359375 4.125 -2.546875 C 4.164062 -1.734375 4.210938 -0.882812 4.265625 0 L 1.5 0 C 1.550781 -0.882812 1.59375 -1.734375 1.625 -2.546875 C 1.65625 -3.359375 1.679688 -4.164062 1.703125 -4.96875 C 1.734375 -5.78125 1.753906 -6.601562 1.765625 -7.4375 C 1.773438 -8.28125 1.78125 -9.164062 1.78125 -10.09375 C 1.78125 -11.019531 1.773438 -11.921875 1.765625 -12.796875 C 1.753906 -13.671875 1.734375 -14.535156 1.703125 -15.390625 C 1.679688 -16.242188 1.65625 -17.09375 1.625 -17.9375 C 1.59375 -18.789062 1.550781 -19.664062 1.5 -20.5625 L 4.28125 -20.5625 L 4.140625 -18.234375 C 4.441406 -18.597656 4.773438 -18.941406 5.140625 -19.265625 C 5.515625 -19.585938 5.898438 -19.875 6.296875 -20.125 C 6.691406 -20.375 7.097656 -20.570312 7.515625 -20.71875 C 7.941406 -20.863281 8.359375 -20.9375 8.765625 -20.9375 C 9.953125 -20.9375 10.867188 -20.460938 11.515625 -19.515625 C 12.171875 -18.578125 12.5 -17.175781 12.5 -15.3125 C 12.5 -14.84375 12.5 -14.347656 12.5 -13.828125 C 12.5 -13.304688 12.492188 -12.789062 12.484375 -12.28125 C 12.472656 -11.78125 12.460938 -11.316406 12.453125 -10.890625 C 12.453125 -10.460938 12.453125 -10.113281 12.453125 -9.84375 C 12.453125 -8.914062 12.457031 -8.046875 12.46875 -7.234375 C 12.476562 -6.429688 12.488281 -5.640625 12.5 -4.859375 C 12.519531 -4.085938 12.546875 -3.304688 12.578125 -2.515625 C 12.617188 -1.722656 12.664062 -0.882812 12.71875 0 L 9.96875 0 C 10.007812 -0.882812 10.050781 -1.722656 10.09375 -2.515625 C 10.132812 -3.304688 10.171875 -4.085938 10.203125 -4.859375 C 10.234375 -5.640625 10.25 -6.429688 10.25 -7.234375 C 10.257812 -8.046875 10.257812 -8.914062 10.25 -9.84375 Z M 10.25 -9.84375 "/></g></g></g><g fill="#ffffff" fill-opacity="1"><g transform="translate(155.40136, 233.899137)"><g><path d="M 4.40625 -20.5625 C 4.351562 -19.707031 4.304688 -18.835938 4.265625 -17.953125 C 4.234375 -17.066406 4.207031 -16.179688 4.1875 -15.296875 C 4.164062 -14.421875 4.148438 -13.5625 4.140625 -12.71875 C 4.128906 -11.875 4.125 -11.066406 4.125 -10.296875 C 4.125 -9.523438 4.128906 -8.710938 4.140625 -7.859375 C 4.148438 -7.015625 4.164062 -6.148438 4.1875 -5.265625 C 4.207031 -4.390625 4.234375 -3.503906 4.265625 -2.609375 C 4.296875 -1.710938 4.335938 -0.84375 4.390625 0 L 1.578125 0 C 1.640625 -0.84375 1.6875 -1.710938 1.71875 -2.609375 C 1.757812 -3.503906 1.789062 -4.390625 1.8125 -5.265625 C 1.832031 -6.148438 1.847656 -7.015625 1.859375 -7.859375 C 1.867188 -8.710938 1.875 -9.523438 1.875 -10.296875 C 1.875 -11.066406 1.867188 -11.875 1.859375 -12.71875 C 1.847656 -13.5625 1.832031 -14.421875 1.8125 -15.296875 C 1.789062 -16.179688 1.757812 -17.066406 1.71875 -17.953125 C 1.6875 -18.835938 1.640625 -19.707031 1.578125 -20.5625 Z M 4.40625 -20.5625 "/></g></g></g><g fill="#ffffff" fill-opacity="1"><g transform="translate(161.399097, 233.899137)"><g><path d="M 9.09375 0 L 9.171875 -1.8125 C 8.929688 -1.539062 8.6875 -1.269531 8.4375 -1 C 8.1875 -0.738281 7.90625 -0.503906 7.59375 -0.296875 C 7.289062 -0.0976562 6.941406 0.0625 6.546875 0.1875 C 6.148438 0.3125 5.679688 0.375 5.140625 0.375 C 4.523438 0.375 3.953125 0.25 3.421875 0 C 2.890625 -0.257812 2.425781 -0.632812 2.03125 -1.125 C 1.632812 -1.613281 1.320312 -2.21875 1.09375 -2.9375 C 0.863281 -3.664062 0.75 -4.503906 0.75 -5.453125 C 0.75 -6.648438 0.929688 -7.675781 1.296875 -8.53125 C 1.671875 -9.394531 2.21875 -10.125 2.9375 -10.71875 C 3.664062 -11.320312 4.5625 -11.804688 5.625 -12.171875 C 6.695312 -12.546875 7.9375 -12.847656 9.34375 -13.078125 C 9.34375 -14.285156 9.28125 -15.28125 9.15625 -16.0625 C 9.039062 -16.851562 8.863281 -17.476562 8.625 -17.9375 C 8.382812 -18.40625 8.085938 -18.726562 7.734375 -18.90625 C 7.378906 -19.09375 6.972656 -19.1875 6.515625 -19.1875 C 6.109375 -19.1875 5.707031 -19.125 5.3125 -19 C 4.914062 -18.875 4.519531 -18.703125 4.125 -18.484375 C 3.726562 -18.273438 3.332031 -18.035156 2.9375 -17.765625 C 2.539062 -17.492188 2.15625 -17.207031 1.78125 -16.90625 L 1.78125 -19.8125 C 2.195312 -19.96875 2.59375 -20.113281 2.96875 -20.25 C 3.351562 -20.382812 3.738281 -20.5 4.125 -20.59375 C 4.507812 -20.695312 4.894531 -20.78125 5.28125 -20.84375 C 5.664062 -20.90625 6.078125 -20.9375 6.515625 -20.9375 C 7.398438 -20.9375 8.164062 -20.816406 8.8125 -20.578125 C 9.46875 -20.335938 10.007812 -19.957031 10.4375 -19.4375 C 10.875 -18.914062 11.203125 -18.242188 11.421875 -17.421875 C 11.640625 -16.609375 11.75 -15.628906 11.75 -14.484375 C 11.75 -14.367188 11.742188 -14.179688 11.734375 -13.921875 C 11.734375 -13.671875 11.726562 -13.367188 11.71875 -13.015625 C 11.71875 -12.671875 11.710938 -12.296875 11.703125 -11.890625 C 11.703125 -11.492188 11.695312 -11.097656 11.6875 -10.703125 C 11.6875 -10.316406 11.679688 -9.953125 11.671875 -9.609375 C 11.671875 -9.265625 11.671875 -8.976562 11.671875 -8.75 C 11.671875 -8.21875 11.675781 -7.617188 11.6875 -6.953125 C 11.695312 -6.296875 11.710938 -5.59375 11.734375 -4.84375 C 11.765625 -4.09375 11.796875 -3.304688 11.828125 -2.484375 C 11.859375 -1.671875 11.898438 -0.84375 11.953125 0 Z M 9.28125 -4.078125 C 9.3125 -5.097656 9.332031 -6.1875 9.34375 -7.34375 C 9.363281 -8.507812 9.375 -9.84375 9.375 -11.34375 C 8.113281 -11.1875 7.09375 -10.9375 6.3125 -10.59375 C 5.53125 -10.257812 4.925781 -9.847656 4.5 -9.359375 C 4.070312 -8.867188 3.78125 -8.304688 3.625 -7.671875 C 3.476562 -7.046875 3.40625 -6.363281 3.40625 -5.625 C 3.40625 -5 3.460938 -4.429688 3.578125 -3.921875 C 3.691406 -3.410156 3.859375 -2.976562 4.078125 -2.625 C 4.296875 -2.269531 4.554688 -2 4.859375 -1.8125 C 5.160156 -1.625 5.5 -1.53125 5.875 -1.53125 C 6.300781 -1.53125 6.675781 -1.601562 7 -1.75 C 7.332031 -1.90625 7.628906 -2.101562 7.890625 -2.34375 C 8.148438 -2.59375 8.390625 -2.867188 8.609375 -3.171875 C 8.835938 -3.484375 9.0625 -3.785156 9.28125 -4.078125 Z M 9.28125 -4.078125 "/></g></g></g><g fill="#ffffff" fill-opacity="1"><g transform="translate(174.695825, 233.899137)"><g/></g></g><g fill="#ffffff" fill-opacity="1"><g transform="translate(180.678606, 233.899137)"><g><path d="M 0.21875 -20.5625 L 10.46875 -20.5625 L 10.46875 -18.8125 L 6.65625 -18.8125 C 6.570312 -17.34375 6.519531 -15.875 6.5 -14.40625 C 6.488281 -12.9375 6.484375 -11.566406 6.484375 -10.296875 C 6.484375 -9.523438 6.488281 -8.710938 6.5 -7.859375 C 6.507812 -7.015625 6.519531 -6.148438 6.53125 -5.265625 C 6.550781 -4.390625 6.578125 -3.503906 6.609375 -2.609375 C 6.640625 -1.710938 6.679688 -0.84375 6.734375 0 L 3.9375 0 C 4 -0.84375 4.046875 -1.710938 4.078125 -2.609375 C 4.109375 -3.503906 4.132812 -4.390625 4.15625 -5.265625 C 4.175781 -6.148438 4.191406 -7.015625 4.203125 -7.859375 C 4.210938 -8.710938 4.21875 -9.523438 4.21875 -10.296875 C 4.21875 -11.566406 4.203125 -12.9375 4.171875 -14.40625 C 4.148438 -15.875 4.109375 -17.34375 4.046875 -18.8125 L 0.21875 -18.8125 Z M 0.21875 -20.5625 "/></g></g></g><g fill="#ffffff" fill-opacity="1"><g transform="translate(191.372825, 233.899137)"><g><path d="M 8.1875 -1.34375 C 8.625 -1.34375 9.019531 -1.394531 9.375 -1.5 C 9.726562 -1.613281 10.050781 -1.753906 10.34375 -1.921875 C 10.644531 -2.085938 10.921875 -2.269531 11.171875 -2.46875 C 11.421875 -2.675781 11.660156 -2.875 11.890625 -3.0625 L 11.890625 -0.125 C 11.628906 -0.0703125 11.367188 -0.015625 11.109375 0.046875 C 10.847656 0.109375 10.550781 0.160156 10.21875 0.203125 C 9.894531 0.253906 9.535156 0.300781 9.140625 0.34375 C 8.742188 0.382812 8.285156 0.40625 7.765625 0.40625 C 6.710938 0.40625 5.769531 0.164062 4.9375 -0.3125 C 4.113281 -0.800781 3.40625 -1.5 2.8125 -2.40625 C 2.226562 -3.320312 1.78125 -4.4375 1.46875 -5.75 C 1.164062 -7.0625 1.015625 -8.546875 1.015625 -10.203125 C 1.015625 -11.796875 1.144531 -13.253906 1.40625 -14.578125 C 1.664062 -15.898438 2.046875 -17.03125 2.546875 -17.96875 C 3.054688 -18.90625 3.679688 -19.632812 4.421875 -20.15625 C 5.160156 -20.675781 6.019531 -20.9375 7 -20.9375 C 8.007812 -20.9375 8.875 -20.703125 9.59375 -20.234375 C 10.320312 -19.773438 10.914062 -19.101562 11.375 -18.21875 C 11.84375 -17.332031 12.179688 -16.242188 12.390625 -14.953125 C 12.609375 -13.671875 12.71875 -12.203125 12.71875 -10.546875 L 12.71875 -10 L 3.6875 -10 C 3.738281 -8.40625 3.863281 -7.0625 4.0625 -5.96875 C 4.257812 -4.875 4.535156 -3.984375 4.890625 -3.296875 C 5.253906 -2.609375 5.707031 -2.109375 6.25 -1.796875 C 6.789062 -1.492188 7.4375 -1.34375 8.1875 -1.34375 Z M 10.140625 -11.734375 C 10.117188 -12.304688 10.085938 -12.890625 10.046875 -13.484375 C 10.015625 -14.085938 9.953125 -14.664062 9.859375 -15.21875 C 9.773438 -15.78125 9.660156 -16.304688 9.515625 -16.796875 C 9.378906 -17.285156 9.195312 -17.707031 8.96875 -18.0625 C 8.738281 -18.425781 8.457031 -18.710938 8.125 -18.921875 C 7.789062 -19.128906 7.398438 -19.234375 6.953125 -19.234375 C 6.359375 -19.234375 5.863281 -19.015625 5.46875 -18.578125 C 5.070312 -18.140625 4.75 -17.566406 4.5 -16.859375 C 4.257812 -16.148438 4.078125 -15.347656 3.953125 -14.453125 C 3.835938 -13.554688 3.753906 -12.648438 3.703125 -11.734375 Z M 10.140625 -11.734375 "/></g></g></g><g fill="#ffffff" fill-opacity="1"><g transform="translate(204.98365, 233.899137)"><g><path d="M 3.078125 -20.5625 C 3.546875 -19.132812 4.019531 -17.773438 4.5 -16.484375 C 4.988281 -15.203125 5.5 -13.925781 6.03125 -12.65625 C 6.570312 -13.925781 7.082031 -15.203125 7.5625 -16.484375 C 8.039062 -17.773438 8.515625 -19.132812 8.984375 -20.5625 L 11.78125 -20.5625 C 10.945312 -18.832031 10.144531 -17.117188 9.375 -15.421875 C 8.601562 -13.722656 7.835938 -12 7.078125 -10.25 C 7.785156 -8.644531 8.539062 -7.003906 9.34375 -5.328125 C 10.144531 -3.660156 11.003906 -1.882812 11.921875 0 L 9.15625 0 C 8.613281 -1.375 8.085938 -2.703125 7.578125 -3.984375 C 7.066406 -5.265625 6.550781 -6.53125 6.03125 -7.78125 C 5.507812 -6.53125 4.988281 -5.265625 4.46875 -3.984375 C 3.957031 -2.703125 3.441406 -1.375 2.921875 0 L 0.15625 0 C 1.0625 -1.882812 1.914062 -3.660156 2.71875 -5.328125 C 3.519531 -7.003906 4.28125 -8.644531 5 -10.25 C 4.238281 -12 3.46875 -13.722656 2.6875 -15.421875 C 1.914062 -17.117188 1.117188 -18.832031 0.296875 -20.5625 Z M 3.078125 -20.5625 "/></g></g></g><g fill="#ffffff" fill-opacity="1"><g transform="translate(217.053909, 233.899137)"><g><path d="M 0.21875 -20.5625 L 10.46875 -20.5625 L 10.46875 -18.8125 L 6.65625 -18.8125 C 6.570312 -17.34375 6.519531 -15.875 6.5 -14.40625 C 6.488281 -12.9375 6.484375 -11.566406 6.484375 -10.296875 C 6.484375 -9.523438 6.488281 -8.710938 6.5 -7.859375 C 6.507812 -7.015625 6.519531 -6.148438 6.53125 -5.265625 C 6.550781 -4.390625 6.578125 -3.503906 6.609375 -2.609375 C 6.640625 -1.710938 6.679688 -0.84375 6.734375 0 L 3.9375 0 C 4 -0.84375 4.046875 -1.710938 4.078125 -2.609375 C 4.109375 -3.503906 4.132812 -4.390625 4.15625 -5.265625 C 4.175781 -6.148438 4.191406 -7.015625 4.203125 -7.859375 C 4.210938 -8.710938 4.21875 -9.523438 4.21875 -10.296875 C 4.21875 -11.566406 4.203125 -12.9375 4.171875 -14.40625 C 4.148438 -15.875 4.109375 -17.34375 4.046875 -18.8125 L 0.21875 -18.8125 Z M 0.21875 -20.5625 "/></g></g></g><g fill="#ffffff" fill-opacity="1"><g transform="translate(227.748129, 233.899137)"><g><path d="M 4.40625 -20.5625 C 4.351562 -19.707031 4.304688 -18.835938 4.265625 -17.953125 C 4.234375 -17.066406 4.207031 -16.179688 4.1875 -15.296875 C 4.164062 -14.421875 4.148438 -13.5625 4.140625 -12.71875 C 4.128906 -11.875 4.125 -11.066406 4.125 -10.296875 C 4.125 -9.523438 4.128906 -8.710938 4.140625 -7.859375 C 4.148438 -7.015625 4.164062 -6.148438 4.1875 -5.265625 C 4.207031 -4.390625 4.234375 -3.503906 4.265625 -2.609375 C 4.296875 -1.710938 4.335938 -0.84375 4.390625 0 L 1.578125 0 C 1.640625 -0.84375 1.6875 -1.710938 1.71875 -2.609375 C 1.757812 -3.503906 1.789062 -4.390625 1.8125 -5.265625 C 1.832031 -6.148438 1.847656 -7.015625 1.859375 -7.859375 C 1.867188 -8.710938 1.875 -9.523438 1.875 -10.296875 C 1.875 -11.066406 1.867188 -11.875 1.859375 -12.71875 C 1.847656 -13.5625 1.832031 -14.421875 1.8125 -15.296875 C 1.789062 -16.179688 1.757812 -17.066406 1.71875 -17.953125 C 1.6875 -18.835938 1.640625 -19.707031 1.578125 -20.5625 Z M 4.40625 -20.5625 "/></g></g></g><g fill="#ffffff" fill-opacity="1"><g transform="translate(233.745866, 233.899137)"><g><path d="M 4.328125 -20.5625 C 4.265625 -19.707031 4.210938 -18.835938 4.171875 -17.953125 C 4.140625 -17.066406 4.113281 -16.179688 4.09375 -15.296875 C 4.070312 -14.421875 4.054688 -13.5625 4.046875 -12.71875 C 4.046875 -11.875 4.046875 -11.066406 4.046875 -10.296875 C 4.046875 -9.003906 4.050781 -7.625 4.0625 -6.15625 C 4.082031 -4.6875 4.128906 -3.21875 4.203125 -1.75 L 10.265625 -1.75 L 10.265625 0 L 1.5 0 C 1.550781 -0.84375 1.59375 -1.710938 1.625 -2.609375 C 1.664062 -3.503906 1.695312 -4.390625 1.71875 -5.265625 C 1.738281 -6.148438 1.753906 -7.015625 1.765625 -7.859375 C 1.773438 -8.710938 1.78125 -9.523438 1.78125 -10.296875 C 1.78125 -11.066406 1.773438 -11.875 1.765625 -12.71875 C 1.753906 -13.5625 1.738281 -14.421875 1.71875 -15.296875 C 1.695312 -16.179688 1.664062 -17.066406 1.625 -17.953125 C 1.59375 -18.835938 1.550781 -19.707031 1.5 -20.5625 Z M 4.328125 -20.5625 "/></g></g></g><g fill="#ffffff" fill-opacity="1"><g transform="translate(244.155903, 233.899137)"><g><path d="M 8.1875 -1.34375 C 8.625 -1.34375 9.019531 -1.394531 9.375 -1.5 C 9.726562 -1.613281 10.050781 -1.753906 10.34375 -1.921875 C 10.644531 -2.085938 10.921875 -2.269531 11.171875 -2.46875 C 11.421875 -2.675781 11.660156 -2.875 11.890625 -3.0625 L 11.890625 -0.125 C 11.628906 -0.0703125 11.367188 -0.015625 11.109375 0.046875 C 10.847656 0.109375 10.550781 0.160156 10.21875 0.203125 C 9.894531 0.253906 9.535156 0.300781 9.140625 0.34375 C 8.742188 0.382812 8.285156 0.40625 7.765625 0.40625 C 6.710938 0.40625 5.769531 0.164062 4.9375 -0.3125 C 4.113281 -0.800781 3.40625 -1.5 2.8125 -2.40625 C 2.226562 -3.320312 1.78125 -4.4375 1.46875 -5.75 C 1.164062 -7.0625 1.015625 -8.546875 1.015625 -10.203125 C 1.015625 -11.796875 1.144531 -13.253906 1.40625 -14.578125 C 1.664062 -15.898438 2.046875 -17.03125 2.546875 -17.96875 C 3.054688 -18.90625 3.679688 -19.632812 4.421875 -20.15625 C 5.160156 -20.675781 6.019531 -20.9375 7 -20.9375 C 8.007812 -20.9375 8.875 -20.703125 9.59375 -20.234375 C 10.320312 -19.773438 10.914062 -19.101562 11.375 -18.21875 C 11.84375 -17.332031 12.179688 -16.242188 12.390625 -14.953125 C 12.609375 -13.671875 12.71875 -12.203125 12.71875 -10.546875 L 12.71875 -10 L 3.6875 -10 C 3.738281 -8.40625 3.863281 -7.0625 4.0625 -5.96875 C 4.257812 -4.875 4.535156 -3.984375 4.890625 -3.296875 C 5.253906 -2.609375 5.707031 -2.109375 6.25 -1.796875 C 6.789062 -1.492188 7.4375 -1.34375 8.1875 -1.34375 Z M 10.140625 -11.734375 C 10.117188 -12.304688 10.085938 -12.890625 10.046875 -13.484375 C 10.015625 -14.085938 9.953125 -14.664062 9.859375 -15.21875 C 9.773438 -15.78125 9.660156 -16.304688 9.515625 -16.796875 C 9.378906 -17.285156 9.195312 -17.707031 8.96875 -18.0625 C 8.738281 -18.425781 8.457031 -18.710938 8.125 -18.921875 C 7.789062 -19.128906 7.398438 -19.234375 6.953125 -19.234375 C 6.359375 -19.234375 5.863281 -19.015625 5.46875 -18.578125 C 5.070312 -18.140625 4.75 -17.566406 4.5 -16.859375 C 4.257812 -16.148438 4.078125 -15.347656 3.953125 -14.453125 C 3.835938 -13.554688 3.753906 -12.648438 3.703125 -11.734375 Z M 10.140625 -11.734375 "/></g></g></g><g fill="#ffffff" fill-opacity="1"><g transform="translate(169.87774, 258.745771)"><g><path d="M 0.375 -15.640625 L 4.03125 -16.125 C 3.988281 -15.46875 3.953125 -14.78125 3.921875 -14.0625 C 3.898438 -13.351562 3.878906 -12.640625 3.859375 -11.921875 C 3.847656 -11.210938 3.835938 -10.515625 3.828125 -9.828125 C 3.816406 -9.148438 3.8125 -8.519531 3.8125 -7.9375 C 3.8125 -7.34375 3.816406 -6.71875 3.828125 -6.0625 C 3.835938 -5.40625 3.847656 -4.738281 3.859375 -4.0625 C 3.878906 -3.382812 3.898438 -2.703125 3.921875 -2.015625 C 3.941406 -1.328125 3.972656 -0.65625 4.015625 0 L 1.859375 0 C 1.898438 -0.65625 1.929688 -1.328125 1.953125 -2.015625 C 1.984375 -2.703125 2.003906 -3.382812 2.015625 -4.0625 C 2.035156 -4.738281 2.050781 -5.40625 2.0625 -6.0625 C 2.070312 -6.71875 2.078125 -7.34375 2.078125 -7.9375 C 2.078125 -8.53125 2.070312 -9.164062 2.0625 -9.84375 C 2.050781 -10.519531 2.035156 -11.171875 2.015625 -11.796875 C 2.003906 -12.421875 1.988281 -12.988281 1.96875 -13.5 C 1.945312 -14.019531 1.929688 -14.414062 1.921875 -14.6875 L 0.375 -14.546875 Z M 0.375 -15.640625 "/></g></g></g><g fill="#ffffff" fill-opacity="1"><g transform="translate(175.538316, 258.745771)"><g><path d="M 3.796875 -1.0625 C 4.265625 -1.0625 4.675781 -1.179688 5.03125 -1.421875 C 5.394531 -1.660156 5.707031 -2.007812 5.96875 -2.46875 C 6.226562 -2.9375 6.4375 -3.503906 6.59375 -4.171875 C 6.757812 -4.835938 6.867188 -5.59375 6.921875 -6.4375 C 6.597656 -6.289062 6.238281 -6.164062 5.84375 -6.0625 C 5.457031 -5.957031 5.085938 -5.90625 4.734375 -5.90625 C 4.140625 -5.90625 3.59375 -6.007812 3.09375 -6.21875 C 2.601562 -6.425781 2.171875 -6.738281 1.796875 -7.15625 C 1.429688 -7.582031 1.144531 -8.109375 0.9375 -8.734375 C 0.738281 -9.367188 0.640625 -10.109375 0.640625 -10.953125 C 0.640625 -11.691406 0.726562 -12.375 0.90625 -13 C 1.09375 -13.632812 1.359375 -14.179688 1.703125 -14.640625 C 2.046875 -15.109375 2.457031 -15.472656 2.9375 -15.734375 C 3.425781 -15.992188 3.972656 -16.125 4.578125 -16.125 C 5.242188 -16.125 5.84375 -15.96875 6.375 -15.65625 C 6.914062 -15.351562 7.375 -14.878906 7.75 -14.234375 C 8.132812 -13.597656 8.429688 -12.785156 8.640625 -11.796875 C 8.847656 -10.816406 8.953125 -9.65625 8.953125 -8.3125 C 8.953125 -7.03125 8.832031 -5.863281 8.59375 -4.8125 C 8.351562 -3.757812 8.007812 -2.847656 7.5625 -2.078125 C 7.113281 -1.316406 6.570312 -0.726562 5.9375 -0.3125 C 5.300781 0.101562 4.585938 0.3125 3.796875 0.3125 C 3.460938 0.3125 3.097656 0.28125 2.703125 0.21875 C 2.316406 0.164062 1.894531 0.046875 1.4375 -0.140625 L 1.4375 -2.046875 C 1.71875 -1.796875 2.050781 -1.566406 2.4375 -1.359375 C 2.820312 -1.160156 3.273438 -1.0625 3.796875 -1.0625 Z M 4.8125 -7.21875 C 5.226562 -7.21875 5.625 -7.289062 6 -7.4375 C 6.375 -7.582031 6.707031 -7.765625 7 -7.984375 C 7 -9.210938 6.945312 -10.257812 6.84375 -11.125 C 6.75 -11.988281 6.601562 -12.691406 6.40625 -13.234375 C 6.21875 -13.773438 5.96875 -14.164062 5.65625 -14.40625 C 5.351562 -14.65625 5 -14.78125 4.59375 -14.78125 C 4.21875 -14.78125 3.898438 -14.6875 3.640625 -14.5 C 3.378906 -14.3125 3.164062 -14.050781 3 -13.71875 C 2.84375 -13.382812 2.726562 -12.984375 2.65625 -12.515625 C 2.582031 -12.046875 2.546875 -11.539062 2.546875 -11 C 2.546875 -10.363281 2.597656 -9.804688 2.703125 -9.328125 C 2.816406 -8.847656 2.972656 -8.453125 3.171875 -8.140625 C 3.367188 -7.828125 3.609375 -7.59375 3.890625 -7.4375 C 4.171875 -7.289062 4.476562 -7.21875 4.8125 -7.21875 Z M 4.8125 -7.21875 "/></g></g></g><g fill="#ffffff" fill-opacity="1"><g transform="translate(185.245456, 258.745771)"><g><path d="M 3.796875 -1.0625 C 4.265625 -1.0625 4.675781 -1.179688 5.03125 -1.421875 C 5.394531 -1.660156 5.707031 -2.007812 5.96875 -2.46875 C 6.226562 -2.9375 6.4375 -3.503906 6.59375 -4.171875 C 6.757812 -4.835938 6.867188 -5.59375 6.921875 -6.4375 C 6.597656 -6.289062 6.238281 -6.164062 5.84375 -6.0625 C 5.457031 -5.957031 5.085938 -5.90625 4.734375 -5.90625 C 4.140625 -5.90625 3.59375 -6.007812 3.09375 -6.21875 C 2.601562 -6.425781 2.171875 -6.738281 1.796875 -7.15625 C 1.429688 -7.582031 1.144531 -8.109375 0.9375 -8.734375 C 0.738281 -9.367188 0.640625 -10.109375 0.640625 -10.953125 C 0.640625 -11.691406 0.726562 -12.375 0.90625 -13 C 1.09375 -13.632812 1.359375 -14.179688 1.703125 -14.640625 C 2.046875 -15.109375 2.457031 -15.472656 2.9375 -15.734375 C 3.425781 -15.992188 3.972656 -16.125 4.578125 -16.125 C 5.242188 -16.125 5.84375 -15.96875 6.375 -15.65625 C 6.914062 -15.351562 7.375 -14.878906 7.75 -14.234375 C 8.132812 -13.597656 8.429688 -12.785156 8.640625 -11.796875 C 8.847656 -10.816406 8.953125 -9.65625 8.953125 -8.3125 C 8.953125 -7.03125 8.832031 -5.863281 8.59375 -4.8125 C 8.351562 -3.757812 8.007812 -2.847656 7.5625 -2.078125 C 7.113281 -1.316406 6.570312 -0.726562 5.9375 -0.3125 C 5.300781 0.101562 4.585938 0.3125 3.796875 0.3125 C 3.460938 0.3125 3.097656 0.28125 2.703125 0.21875 C 2.316406 0.164062 1.894531 0.046875 1.4375 -0.140625 L 1.4375 -2.046875 C 1.71875 -1.796875 2.050781 -1.566406 2.4375 -1.359375 C 2.820312 -1.160156 3.273438 -1.0625 3.796875 -1.0625 Z M 4.8125 -7.21875 C 5.226562 -7.21875 5.625 -7.289062 6 -7.4375 C 6.375 -7.582031 6.707031 -7.765625 7 -7.984375 C 7 -9.210938 6.945312 -10.257812 6.84375 -11.125 C 6.75 -11.988281 6.601562 -12.691406 6.40625 -13.234375 C 6.21875 -13.773438 5.96875 -14.164062 5.65625 -14.40625 C 5.351562 -14.65625 5 -14.78125 4.59375 -14.78125 C 4.21875 -14.78125 3.898438 -14.6875 3.640625 -14.5 C 3.378906 -14.3125 3.164062 -14.050781 3 -13.71875 C 2.84375 -13.382812 2.726562 -12.984375 2.65625 -12.515625 C 2.582031 -12.046875 2.546875 -11.539062 2.546875 -11 C 2.546875 -10.363281 2.597656 -9.804688 2.703125 -9.328125 C 2.816406 -8.847656 2.972656 -8.453125 3.171875 -8.140625 C 3.367188 -7.828125 3.609375 -7.59375 3.890625 -7.4375 C 4.171875 -7.289062 4.476562 -7.21875 4.8125 -7.21875 Z M 4.8125 -7.21875 "/></g></g></g><g fill="#ffffff" fill-opacity="1"><g transform="translate(194.952596, 258.745771)"><g><path d="M 9.40625 -7.90625 C 9.40625 -6.4375 9.296875 -5.179688 9.078125 -4.140625 C 8.867188 -3.109375 8.570312 -2.257812 8.1875 -1.59375 C 7.8125 -0.9375 7.359375 -0.453125 6.828125 -0.140625 C 6.296875 0.160156 5.71875 0.3125 5.09375 0.3125 C 4.46875 0.3125 3.890625 0.160156 3.359375 -0.140625 C 2.835938 -0.453125 2.378906 -0.9375 1.984375 -1.59375 C 1.597656 -2.257812 1.296875 -3.109375 1.078125 -4.140625 C 0.867188 -5.179688 0.765625 -6.4375 0.765625 -7.90625 C 0.765625 -9.363281 0.867188 -10.613281 1.078125 -11.65625 C 1.296875 -12.695312 1.597656 -13.546875 1.984375 -14.203125 C 2.378906 -14.859375 2.835938 -15.34375 3.359375 -15.65625 C 3.890625 -15.96875 4.46875 -16.125 5.09375 -16.125 C 5.71875 -16.125 6.296875 -15.96875 6.828125 -15.65625 C 7.359375 -15.34375 7.8125 -14.859375 8.1875 -14.203125 C 8.570312 -13.546875 8.867188 -12.695312 9.078125 -11.65625 C 9.296875 -10.613281 9.40625 -9.363281 9.40625 -7.90625 Z M 7.453125 -7.90625 C 7.429688 -9.144531 7.363281 -10.195312 7.25 -11.0625 C 7.144531 -11.9375 6.988281 -12.644531 6.78125 -13.1875 C 6.582031 -13.726562 6.34375 -14.117188 6.0625 -14.359375 C 5.78125 -14.609375 5.457031 -14.734375 5.09375 -14.734375 C 4.726562 -14.734375 4.398438 -14.609375 4.109375 -14.359375 C 3.816406 -14.117188 3.566406 -13.726562 3.359375 -13.1875 C 3.160156 -12.644531 3.003906 -11.941406 2.890625 -11.078125 C 2.773438 -10.210938 2.71875 -9.15625 2.71875 -7.90625 C 2.71875 -6.644531 2.773438 -5.582031 2.890625 -4.71875 C 3.003906 -3.851562 3.160156 -3.148438 3.359375 -2.609375 C 3.566406 -2.066406 3.816406 -1.675781 4.109375 -1.4375 C 4.398438 -1.195312 4.726562 -1.078125 5.09375 -1.078125 C 5.46875 -1.078125 5.800781 -1.195312 6.09375 -1.4375 C 6.382812 -1.675781 6.628906 -2.066406 6.828125 -2.609375 C 7.035156 -3.148438 7.191406 -3.851562 7.296875 -4.71875 C 7.410156 -5.582031 7.460938 -6.644531 7.453125 -7.90625 Z M 7.453125 -7.90625 "/></g></g></g><path stroke-linecap="round" transform="matrix(1.84575, 0, 0, 1.852159, 116.589357, 251.279926)" fill="none" stroke-linejoin="miter" d="M 0.499722 0.000714896 L 20.575401 0.000714896 " stroke="#ffffff" stroke-width="1" stroke-opacity="1" stroke-miterlimit="4"/><path stroke-linecap="round" transform="matrix(1.84575, 0, 0, 1.852159, 219.374023, 251.279926)" fill="none" stroke-linejoin="miter" d="M 0.499988 0.000714896 L 20.575667 0.000714896 " stroke="#ffffff" stroke-width="1" stroke-opacity="1" stroke-miterlimit="4"/></svg>